<svg xmlns="http://www.w3.org/2000/svg" xmlns:xlink="http://www.w3.org/1999/xlink" width="158" zoomAndPan="magnify" viewBox="0 0 118.5 34.499999" height="46" preserveAspectRatio="xMidYMid meet" version="1.0"><defs><g/></defs><g fill="#000000" fill-opacity="1"><g transform="translate(3.500021, 25.757202)"><g><path d="M 2.21875 0 L 2.21875 -16.28125 L 4.265625 -16.28125 L 4.265625 -1.828125 L 11.375 -1.828125 L 11.375 0 Z M 2.21875 0 "/></g></g></g><g fill="#000000" fill-opacity="1"><g transform="translate(15.442471, 25.757202)"><g><path d="M 12.5625 -6.140625 C 12.5625 -4.140625 12.054688 -2.578125 11.046875 -1.453125 C 10.035156 -0.335938 8.640625 0.21875 6.859375 0.21875 C 5.753906 0.21875 4.773438 -0.0351562 3.921875 -0.546875 C 3.066406 -1.066406 2.410156 -1.804688 1.953125 -2.765625 C 1.492188 -3.734375 1.265625 -4.859375 1.265625 -6.140625 C 1.265625 -8.117188 1.757812 -9.660156 2.75 -10.765625 C 3.738281 -11.878906 5.132812 -12.4375 6.9375 -12.4375 C 8.65625 -12.4375 10.019531 -11.867188 11.03125 -10.734375 C 12.050781 -9.609375 12.5625 -8.078125 12.5625 -6.140625 Z M 3.328125 -6.140625 C 3.328125 -4.597656 3.628906 -3.425781 4.234375 -2.625 C 4.835938 -1.832031 5.726562 -1.4375 6.90625 -1.4375 C 8.070312 -1.4375 8.957031 -1.832031 9.5625 -2.625 C 10.175781 -3.425781 10.484375 -4.597656 10.484375 -6.140625 C 10.484375 -7.671875 10.175781 -8.820312 9.5625 -9.59375 C 8.957031 -10.375 8.0625 -10.765625 6.875 -10.765625 C 4.507812 -10.765625 3.328125 -9.222656 3.328125 -6.140625 Z M 3.328125 -6.140625 "/></g></g></g><g fill="#000000" fill-opacity="1"><g transform="translate(29.232494, 25.757202)"><g><path d="M 6.59375 -1.40625 C 7.820312 -1.40625 8.71875 -1.738281 9.28125 -2.40625 C 9.84375 -3.070312 10.125 -4.140625 10.125 -5.609375 L 10.125 -6.09375 C 10.125 -7.71875 9.835938 -8.898438 9.265625 -9.640625 C 8.703125 -10.390625 7.796875 -10.765625 6.546875 -10.765625 C 5.523438 -10.765625 4.734375 -10.359375 4.171875 -9.546875 C 3.609375 -8.734375 3.328125 -7.570312 3.328125 -6.0625 C 3.328125 -4.550781 3.597656 -3.394531 4.140625 -2.59375 C 4.691406 -1.800781 5.507812 -1.40625 6.59375 -1.40625 Z M 10.09375 -0.109375 L 10.15625 -1.609375 L 10.078125 -1.609375 C 9.253906 -0.390625 7.992188 0.21875 6.296875 0.21875 C 4.710938 0.21875 3.476562 -0.328125 2.59375 -1.421875 C 1.707031 -2.523438 1.265625 -4.082031 1.265625 -6.09375 C 1.265625 -8.050781 1.707031 -9.597656 2.59375 -10.734375 C 3.488281 -11.867188 4.710938 -12.4375 6.265625 -12.4375 C 7.921875 -12.4375 9.195312 -11.820312 10.09375 -10.59375 L 10.21875 -10.59375 L 10.484375 -12.21875 L 12.078125 -12.21875 L 12.078125 0.203125 C 12.078125 1.953125 11.632812 3.269531 10.75 4.15625 C 9.863281 5.039062 8.484375 5.484375 6.609375 5.484375 C 4.828125 5.484375 3.363281 5.222656 2.21875 4.703125 L 2.21875 2.84375 C 3.40625 3.488281 4.90625 3.8125 6.71875 3.8125 C 7.757812 3.8125 8.582031 3.503906 9.1875 2.890625 C 9.789062 2.285156 10.09375 1.445312 10.09375 0.375 Z M 10.09375 -0.109375 "/></g></g></g><g fill="#000000" fill-opacity="1"><g transform="translate(43.256241, 25.757202)"><g><path d="M 12.5625 -6.140625 C 12.5625 -4.140625 12.054688 -2.578125 11.046875 -1.453125 C 10.035156 -0.335938 8.640625 0.21875 6.859375 0.21875 C 5.753906 0.21875 4.773438 -0.0351562 3.921875 -0.546875 C 3.066406 -1.066406 2.410156 -1.804688 1.953125 -2.765625 C 1.492188 -3.734375 1.265625 -4.859375 1.265625 -6.140625 C 1.265625 -8.117188 1.757812 -9.660156 2.75 -10.765625 C 3.738281 -11.878906 5.132812 -12.4375 6.9375 -12.4375 C 8.65625 -12.4375 10.019531 -11.867188 11.03125 -10.734375 C 12.050781 -9.609375 12.5625 -8.078125 12.5625 -6.140625 Z M 3.328125 -6.140625 C 3.328125 -4.597656 3.628906 -3.425781 4.234375 -2.625 C 4.835938 -1.832031 5.726562 -1.4375 6.90625 -1.4375 C 8.070312 -1.4375 8.957031 -1.832031 9.5625 -2.625 C 10.175781 -3.425781 10.484375 -4.597656 10.484375 -6.140625 C 10.484375 -7.671875 10.175781 -8.820312 9.5625 -9.59375 C 8.957031 -10.375 8.0625 -10.765625 6.875 -10.765625 C 4.507812 -10.765625 3.328125 -9.222656 3.328125 -6.140625 Z M 3.328125 -6.140625 "/></g></g></g><g fill="#000000" fill-opacity="1"><g transform="translate(57.046264, 25.757202)"><g/></g></g><g fill="#000000" fill-opacity="1"><g transform="translate(62.967401, 25.757202)"><g><path d="M 14.65625 0 L 12.609375 0 L 12.609375 -7.59375 L 4.265625 -7.59375 L 4.265625 0 L 2.21875 0 L 2.21875 -16.28125 L 4.265625 -16.28125 L 4.265625 -9.390625 L 12.609375 -9.390625 L 12.609375 -16.28125 L 14.65625 -16.28125 Z M 14.65625 0 "/></g></g></g><g fill="#000000" fill-opacity="1"><g transform="translate(79.862676, 25.757202)"><g><path d="M 7.140625 0.21875 C 5.304688 0.21875 3.867188 -0.332031 2.828125 -1.4375 C 1.785156 -2.550781 1.265625 -4.078125 1.265625 -6.015625 C 1.265625 -7.972656 1.75 -9.53125 2.71875 -10.6875 C 3.6875 -11.851562 5 -12.4375 6.65625 -12.4375 C 8.1875 -12.4375 9.410156 -11.941406 10.328125 -10.953125 C 11.242188 -9.960938 11.703125 -8.625 11.703125 -6.9375 L 11.703125 -5.71875 L 3.328125 -5.71875 C 3.367188 -4.332031 3.722656 -3.28125 4.390625 -2.5625 C 5.054688 -1.84375 6 -1.484375 7.21875 -1.484375 C 7.875 -1.484375 8.492188 -1.539062 9.078125 -1.65625 C 9.671875 -1.769531 10.359375 -1.992188 11.140625 -2.328125 L 11.140625 -0.5625 C 10.460938 -0.28125 9.828125 -0.0820312 9.234375 0.03125 C 8.640625 0.15625 7.941406 0.21875 7.140625 0.21875 Z M 6.640625 -10.8125 C 5.679688 -10.8125 4.921875 -10.5 4.359375 -9.875 C 3.804688 -9.257812 3.476562 -8.40625 3.375 -7.3125 L 9.59375 -7.3125 C 9.582031 -8.457031 9.316406 -9.328125 8.796875 -9.921875 C 8.285156 -10.515625 7.566406 -10.8125 6.640625 -10.8125 Z M 6.640625 -10.8125 "/></g></g></g><g fill="#000000" fill-opacity="1"><g transform="translate(92.717783, 25.757202)"><g><path d="M 7.640625 -12.4375 C 8.179688 -12.4375 8.660156 -12.394531 9.078125 -12.3125 L 8.828125 -10.46875 C 8.367188 -10.570312 7.925781 -10.625 7.5 -10.625 C 6.851562 -10.625 6.253906 -10.441406 5.703125 -10.078125 C 5.148438 -9.722656 4.71875 -9.234375 4.40625 -8.609375 C 4.09375 -7.984375 3.9375 -7.285156 3.9375 -6.515625 L 3.9375 0 L 1.9375 0 L 1.9375 -12.21875 L 3.578125 -12.21875 L 3.8125 -9.984375 L 3.890625 -9.984375 C 4.359375 -10.796875 4.910156 -11.40625 5.546875 -11.8125 C 6.191406 -12.226562 6.890625 -12.4375 7.640625 -12.4375 Z M 7.640625 -12.4375 "/></g></g></g><g fill="#000000" fill-opacity="1"><g transform="translate(102.133727, 25.757202)"><g><path d="M 7.140625 0.21875 C 5.304688 0.21875 3.867188 -0.332031 2.828125 -1.4375 C 1.785156 -2.550781 1.265625 -4.078125 1.265625 -6.015625 C 1.265625 -7.972656 1.75 -9.53125 2.71875 -10.6875 C 3.6875 -11.851562 5 -12.4375 6.65625 -12.4375 C 8.1875 -12.4375 9.410156 -11.941406 10.328125 -10.953125 C 11.242188 -9.960938 11.703125 -8.625 11.703125 -6.9375 L 11.703125 -5.71875 L 3.328125 -5.71875 C 3.367188 -4.332031 3.722656 -3.28125 4.390625 -2.5625 C 5.054688 -1.84375 6 -1.484375 7.21875 -1.484375 C 7.875 -1.484375 8.492188 -1.539062 9.078125 -1.65625 C 9.671875 -1.769531 10.359375 -1.992188 11.140625 -2.328125 L 11.140625 -0.5625 C 10.460938 -0.28125 9.828125 -0.0820312 9.234375 0.03125 C 8.640625 0.15625 7.941406 0.21875 7.140625 0.21875 Z M 6.640625 -10.8125 C 5.679688 -10.8125 4.921875 -10.5 4.359375 -9.875 C 3.804688 -9.257812 3.476562 -8.40625 3.375 -7.3125 L 9.59375 -7.3125 C 9.582031 -8.457031 9.316406 -9.328125 8.796875 -9.921875 C 8.285156 -10.515625 7.566406 -10.8125 6.640625 -10.8125 Z M 6.640625 -10.8125 "/></g></g></g></svg>